# Created using Spin 3D

mtllib X_model

# Vertex Array
v 0.392 0.158 0.269 0 0 0
v 0.372 0.102 0.269 0 0 0
v 0.356 0.102 0.269 0 0 0
v 0.399 0.146 0.269 0 0 0
v 0.398 0.144 0.269 0 0 0
v 0.401 0.150 0.269 0 0 0
v 0.400 0.148 0.269 0 0 0
v 0.401 0.150 0.269 0 0 0
v 0.403 0.147 0.269 0 0 0
v 0.402 0.149 0.269 0 0 0
v 0.404 0.144 0.269 0 0 0
v 0.446 0.102 0.269 0 0 0
v 0.430 0.102 0.269 0 0 0
v 0.409 0.158 0.269 0 0 0
v 0.427 0.213 0.269 0 0 0
v 0.443 0.213 0.269 0 0 0
v 0.404 0.174 0.269 0 0 0
v 0.402 0.169 0.269 0 0 0
v 0.403 0.171 0.269 0 0 0
v 0.400 0.166 0.269 0 0 0
v 0.397 0.172 0.269 0 0 0
v 0.399 0.169 0.269 0 0 0
v 0.396 0.174 0.269 0 0 0
v 0.372 0.213 0.269 0 0 0
v 0.357 0.213 0.269 0 0 0
v 0.400 0.166 0.269 0 0 0
v 0.356 0.102 0.231 0 0 0
v 0.372 0.102 0.231 0 0 0
v 0.392 0.158 0.231 0 0 0
v 0.398 0.144 0.231 0 0 0
v 0.399 0.146 0.231 0 0 0
v 0.400 0.148 0.231 0 0 0
v 0.401 0.150 0.231 0 0 0
v 0.402 0.149 0.231 0 0 0
v 0.403 0.147 0.231 0 0 0
v 0.401 0.150 0.231 0 0 0
v 0.404 0.144 0.231 0 0 0
v 0.430 0.102 0.231 0 0 0
v 0.446 0.102 0.231 0 0 0
v 0.443 0.213 0.231 0 0 0
v 0.427 0.213 0.231 0 0 0
v 0.409 0.158 0.231 0 0 0
v 0.404 0.174 0.231 0 0 0
v 0.403 0.171 0.231 0 0 0
v 0.402 0.169 0.231 0 0 0
v 0.399 0.169 0.231 0 0 0
v 0.397 0.172 0.231 0 0 0
v 0.400 0.166 0.231 0 0 0
v 0.396 0.174 0.231 0 0 0
v 0.372 0.213 0.231 0 0 0
v 0.357 0.213 0.231 0 0 0
v 0.400 0.166 0.231 0 0 0

# Normal Array
vn 0.000 -0.000 1.000
vn -0.000 0.000 1.000
vn 0.000 0.000 1.000
vn 0.000 0.000 1.000
vn 0.000 0.000 1.000
vn 0.000 0.000 1.000
vn 0.000 0.000 1.000
vn 0.000 -0.000 1.000
vn 0.000 0.000 1.000
vn 0.000 0.000 1.000
vn 0.000 0.000 1.000
vn -0.000 -0.000 1.000
vn 0.000 0.000 1.000
vn -0.000 -0.000 1.000
vn 0.000 0.000 1.000
vn -0.000 0.000 1.000
vn 0.000 0.000 1.000
vn 0.000 0.000 1.000
vn -0.000 0.000 1.000
vn 0.000 0.000 1.000
vn 0.000 0.000 1.000
vn 0.000 -0.000 1.000
vn 0.000 0.000 1.000
vn 0.000 0.000 1.000
vn -0.000 0.000 -1.000
vn 0.000 -0.000 -1.000
vn -0.000 0.000 -1.000
vn 0.000 0.000 -1.000
vn 0.000 0.000 -1.000
vn 0.000 0.000 -1.000
vn 0.000 -0.000 -1.000
vn 0.000 0.000 -1.000
vn 0.000 -0.000 -1.000
vn -0.000 -0.000 -1.000
vn -0.000 -0.000 -1.000
vn 0.000 0.000 -1.000
vn 0.000 -0.000 -1.000
vn 0.000 0.000 -1.000
vn 0.000 0.000 -1.000
vn 0.000 -0.000 -1.000
vn -0.000 0.000 -1.000
vn 0.000 -0.000 -1.000
vn 0.000 -0.000 -1.000
vn 0.000 0.000 -1.000
vn 0.000 0.000 -1.000
vn 0.000 0.000 -1.000
vn 0.000 -0.000 -1.000
vn 0.000 0.000 -1.000
vn 0.000 -1.000 0.000
vn 0.000 -1.000 0.000
vn 0.857 -0.515 0.000
vn 0.857 -0.515 0.000
vn 0.878 -0.478 0.000
vn 0.878 -0.478 0.000
vn 0.907 -0.421 0.000
vn 0.907 -0.421 0.000
vn 0.925 -0.381 0.000
vn 0.925 -0.381 0.000
vn 0.000 -1.000 0.000
vn 0.000 -1.000 0.000
vn -0.910 -0.415 -0.000
vn -0.910 -0.415 -0.000
vn -0.902 -0.431 -0.000
vn -0.902 -0.432 0.000
vn -0.897 -0.443 -0.000
vn -0.897 -0.443 0.000
vn -0.850 -0.527 -0.000
vn -0.850 -0.527 0.000
vn 0.000 -1.000 0.000
vn 0.000 -1.000 0.000
vn 0.832 0.554 0.000
vn 0.832 0.554 0.000
vn 0.850 -0.527 0.000
vn 0.850 -0.527 0.000
vn 0.000 1.000 0.000
vn 0.000 1.000 0.000
vn -0.865 0.503 0.000
vn -0.865 0.503 0.000
vn -0.874 0.487 0.000
vn -0.874 0.487 0.000
vn -0.891 0.454 0.000
vn -0.891 0.454 0.000
vn -0.907 0.420 0.000
vn -0.907 0.420 0.000
vn 0.000 1.000 0.000
vn 0.000 1.000 0.000
vn 0.895 0.447 0.000
vn 0.895 0.447 0.000
vn 0.880 0.474 0.000
vn 0.880 0.474 0.000
vn 0.860 0.510 0.000
vn 0.860 0.510 0.000
vn 0.854 0.521 0.000
vn 0.854 0.521 0.000
vn 0.000 1.000 0.000
vn 0.000 1.000 0.000
vn -0.844 -0.536 -0.000
vn -0.844 -0.536 0.000
vn -0.845 0.534 0.000
vn -0.845 0.534 0.000

# Texture Coordinate Array 
vt 0.000 0.000
vt 0.000 0.000
vt 0.000 0.000
vt 0.000 0.000
vt 0.000 0.000
vt 0.000 0.000
vt 0.000 0.000
vt 0.000 0.000
vt 0.000 0.000
vt 0.000 0.000
vt 0.000 0.000
vt 0.000 0.000
vt 0.000 0.000
vt 0.000 0.000
vt 0.000 0.000
vt 0.000 0.000
vt 0.000 0.000
vt 0.000 0.000
vt 0.000 0.000
vt 0.000 0.000
vt 0.000 0.000
vt 0.000 0.000
vt 0.000 0.000
vt 0.000 0.000
vt 0.000 0.000
vt 0.000 0.000
vt 0.000 0.000
vt 0.000 0.000
vt 0.000 0.000
vt 0.000 0.000
vt 0.000 0.000
vt 0.000 0.000
vt 0.000 0.000
vt 0.000 0.000
vt 0.000 0.000
vt 0.000 0.000
vt 0.000 0.000
vt 0.000 0.000
vt 0.000 0.000
vt 0.000 0.000
vt 0.000 0.000
vt 0.000 0.000
vt 0.000 0.000
vt 0.000 0.000
vt 0.000 0.000
vt 0.000 0.000
vt 0.000 0.000
vt 0.000 0.000
vt 0.000 0.000
vt 0.000 0.000
vt 0.000 0.000
vt 0.000 0.000
vt 0.000 0.000
vt 0.000 0.000
vt 0.000 0.000
vt 0.000 0.000
vt 0.000 0.000
vt 0.000 0.000
vt 0.000 0.000
vt 0.000 0.000
vt 0.000 0.000
vt 0.000 0.000
vt 0.000 0.000
vt 0.000 0.000
vt 0.000 0.000
vt 0.000 0.000
vt 0.000 0.000
vt 0.000 0.000
vt 0.000 0.000
vt 0.000 0.000
vt 0.000 0.000
vt 0.000 0.000
vt 0.000 0.000
vt 0.000 0.000
vt 0.000 0.000
vt 0.000 0.000
vt 0.000 0.000
vt 0.000 0.000
vt 0.000 0.000
vt 0.000 0.000
vt 0.000 0.000
vt 0.000 0.000
vt 0.000 0.000
vt 0.000 0.000
vt 0.000 0.000
vt 0.000 0.000
vt 0.000 0.000
vt 0.000 0.000
vt 0.000 0.000
vt 0.000 0.000
vt 0.000 0.000
vt 0.000 0.000
vt 0.000 0.000
vt 0.000 0.000
vt 0.000 0.000
vt 0.000 0.000
vt 0.000 0.000
vt 0.000 0.000
vt 0.000 0.000
vt 0.000 0.000
vt 0.000 0.000
vt 0.000 0.000
vt 0.000 0.000
vt 0.000 0.000
vt 0.000 0.000
vt 0.000 0.000
vt 0.000 0.000
vt 0.000 0.000
vt 0.000 0.000
vt 0.000 0.000
vt 0.000 0.000
vt 0.000 0.000
vt 0.000 0.000
vt 0.000 0.000
vt 0.000 0.000
vt 0.000 0.000
vt 0.000 0.000
vt 0.000 0.000
vt 0.000 0.000
vt 0.000 0.000
vt 0.000 0.000
vt 0.000 0.000
vt 0.000 0.000
vt 0.000 0.000
vt 0.000 0.000
vt 0.000 0.000
vt 0.000 0.000
vt 0.000 0.000
vt 0.000 0.000
vt 0.000 0.000
vt 0.000 0.000
vt 0.000 0.000
vt 0.000 0.000
vt 0.000 0.000
vt 0.000 0.000
vt 0.000 0.000
vt 0.000 0.000
vt 0.000 0.000
vt 0.000 0.000
vt 0.000 0.000
vt 0.000 0.000
vt 0.000 0.000
vt 0.000 0.000
vt 0.000 0.000
vt 0.000 0.000
vt 0.000 0.000
vt 0.000 0.000
vt 0.000 0.000
vt 0.000 0.000
vt 0.000 0.000
vt 0.000 0.000
vt 0.000 0.000
vt 0.000 0.000
vt 0.000 0.000
vt 0.000 0.000
vt 0.000 0.000
vt 0.000 0.000
vt 0.000 0.000
vt 0.000 0.000
vt 0.000 0.000
vt 0.000 0.000
vt 0.000 0.000
vt 0.000 0.000
vt 0.000 0.000
vt 0.000 0.000
vt 0.000 0.000
vt 0.000 0.000
vt 0.000 0.000
vt 0.000 0.000
vt 0.000 0.000
vt 0.000 0.000
vt 0.000 0.000
vt 0.000 0.000
vt 0.000 0.000
vt 0.000 0.000
vt 0.000 0.000
vt 0.000 0.000
vt 0.000 0.000
vt 0.000 0.000
vt 0.000 0.000
vt 0.000 0.000
vt 0.000 0.000
vt 0.000 0.000
vt 0.000 0.000
vt 0.000 0.000
vt 0.000 0.000
vt 0.000 0.000
vt 0.000 0.000
vt 0.000 0.000
vt 0.000 0.000
vt 0.000 0.000
vt 0.000 0.000
vt 0.000 0.000
vt 0.000 0.000
vt 0.000 0.000
vt 0.000 0.000
vt 0.000 0.000
vt 0.000 0.000
vt 0.000 0.000
vt 0.000 0.000
vt 0.000 0.000
vt 0.000 0.000
vt 0.000 0.000
vt 0.000 0.000
vt 0.000 0.000
vt 0.000 0.000
vt 0.000 0.000
vt 0.000 0.000
vt 0.000 0.000
vt 0.000 0.000
vt 0.000 0.000
vt 0.000 0.000
vt 0.000 0.000
vt 0.000 0.000
vt 0.000 0.000
vt 0.000 0.000
vt 0.000 0.000
vt 0.000 0.000
vt 0.000 0.000
vt 0.000 0.000
vt 0.000 0.000
vt 0.000 0.000
vt 0.000 0.000
vt 0.000 0.000
vt 0.000 0.000
vt 0.000 0.000
vt 0.000 0.000
vt 0.000 0.000
vt 0.000 0.000
vt 0.000 0.000
vt 0.000 0.000
vt 0.000 0.000
vt 0.000 0.000
vt 0.000 0.000
vt 0.000 0.000
vt 0.000 0.000
vt 0.000 0.000
vt 0.000 0.000
vt 0.000 0.000
vt 0.000 0.000
vt 0.000 0.000
vt 0.000 0.000
vt 0.000 0.000
vt 0.000 0.000
vt 0.000 0.000
vt 0.000 0.000
vt 0.000 0.000
vt 0.000 0.000
vt 0.000 0.000
vt 0.000 0.000
vt 0.000 0.000
vt 0.000 0.000
vt 0.000 0.000
vt 0.000 0.000
vt 0.000 0.000
vt 0.000 0.000
vt 0.000 0.000
vt 0.000 0.000
vt 0.000 0.000
vt 0.000 0.000
vt 0.000 0.000
vt 0.000 0.000
vt 0.000 0.000
vt 0.000 0.000
vt 0.000 0.000
vt 0.000 0.000
vt 0.000 0.000
vt 0.000 0.000
vt 0.000 0.000
vt 0.000 0.000
vt 0.000 0.000
vt 0.000 0.000
vt 0.000 0.000
vt 0.000 0.000
vt 0.000 0.000
vt 0.000 0.000
vt 0.000 0.000
vt 0.000 0.000
vt 0.000 0.000
vt 0.000 0.000
vt 0.000 0.000
vt 0.000 0.000
vt 0.000 0.000
vt 0.000 0.000
vt 0.000 0.000
vt 0.000 0.000
vt 0.000 0.000
vt 0.000 0.000
vt 0.000 0.000
vt 0.000 0.000
vt 0.000 0.000
vt 0.000 0.000
vt 0.000 0.000
vt 0.000 0.000
vt 0.000 0.000
vt 0.000 0.000
vt 0.000 0.000
vt 0.000 0.000
vt 0.000 0.000
vt 0.000 0.000

# Facets
usemtl None
f 1/1/1 3/2/1 2/3/1
f 2/4/2 5/5/2 4/6/2
f 4/7/3 7/8/3 6/9/3
f 8/10/4 10/11/4 9/12/4
f 8/13/5 9/14/5 11/15/5
f 11/16/6 13/17/6 12/18/6
f 14/19/7 16/20/7 15/21/7
f 14/22/8 15/23/8 17/24/8
f 17/25/9 19/26/9 18/27/9
f 20/28/10 22/29/10 21/30/10
f 20/31/11 21/32/11 23/33/11
f 20/34/12 23/35/12 24/36/12
f 24/37/13 25/38/13 1/39/13
f 1/40/14 2/41/14 4/42/14
f 8/43/15 11/44/15 12/45/15
f 8/46/16 12/47/16 14/48/16
f 8/49/17 14/50/17 17/51/17
f 17/52/18 18/53/18 26/54/18
f 20/55/19 24/56/19 1/57/19
f 20/58/20 1/59/20 4/60/20
f 6/61/21 8/62/21 17/63/21
f 6/64/22 17/65/22 26/66/22
f 26/67/23 20/68/23 4/69/23
f 26/70/24 4/71/24 6/72/24
f 27/73/25 29/74/25 28/75/25
f 30/76/26 28/77/26 31/78/26
f 32/79/27 31/80/27 33/81/27
f 34/82/28 36/83/28 35/84/28
f 35/85/29 36/86/29 37/87/29
f 38/88/30 37/89/30 39/90/30
f 40/91/31 42/92/31 41/93/31
f 41/94/32 42/95/32 43/96/32
f 44/97/33 43/98/33 45/99/33
f 46/100/34 48/101/34 47/102/34
f 47/103/35 48/104/35 49/105/35
f 49/106/36 48/107/36 50/108/36
f 51/109/37 50/110/37 29/111/37
f 28/112/38 29/113/38 31/114/38
f 37/115/39 36/116/39 39/117/39
f 39/118/40 36/119/40 42/120/40
f 42/121/41 36/122/41 43/123/41
f 45/124/42 43/125/42 52/126/42
f 50/127/43 48/128/43 29/129/43
f 29/130/44 48/131/44 31/132/44
f 36/133/45 33/134/45 43/135/45
f 43/136/46 33/137/46 52/138/46
f 48/139/47 52/140/47 31/141/47
f 31/142/48 52/143/48 33/144/48
f 3/145/49 27/146/49 28/147/49
f 3/148/50 28/149/50 2/150/50
f 2/151/51 28/152/51 30/153/51
f 2/154/52 30/155/52 5/156/52
f 5/157/53 30/158/53 31/159/53
f 5/160/54 31/161/54 4/162/54
f 4/163/55 31/164/55 32/165/55
f 4/166/56 32/167/56 7/168/56
f 7/169/57 32/170/57 33/171/57
f 7/172/58 33/173/58 6/174/58
f 6/175/59 33/176/59 36/177/59
f 6/178/60 36/179/60 8/180/60
f 8/181/61 36/182/61 34/183/61
f 8/184/62 34/185/62 10/186/62
f 10/187/63 34/188/63 35/189/63
f 10/190/64 35/191/64 9/192/64
f 9/193/65 35/194/65 37/195/65
f 9/196/66 37/197/66 11/198/66
f 11/199/67 37/200/67 38/201/67
f 11/202/68 38/203/68 13/204/68
f 13/205/69 38/206/69 39/207/69
f 13/208/70 39/209/70 12/210/70
f 12/211/71 39/212/71 42/213/71
f 12/214/72 42/215/72 14/216/72
f 14/217/73 42/218/73 40/219/73
f 14/220/74 40/221/74 16/222/74
f 16/223/75 40/224/75 41/225/75
f 16/226/76 41/227/76 15/228/76
f 15/229/77 41/230/77 43/231/77
f 15/232/78 43/233/78 17/234/78
f 17/235/79 43/236/79 44/237/79
f 17/238/80 44/239/80 19/240/80
f 19/241/81 44/242/81 45/243/81
f 19/244/82 45/245/82 18/246/82
f 18/247/83 45/248/83 52/249/83
f 18/250/84 52/251/84 26/252/84
f 26/253/85 52/254/85 48/255/85
f 26/256/86 48/257/86 20/258/86
f 20/259/87 48/260/87 46/261/87
f 20/262/88 46/263/88 22/264/88
f 22/265/89 46/266/89 47/267/89
f 22/268/90 47/269/90 21/270/90
f 21/271/91 47/272/91 49/273/91
f 21/274/92 49/275/92 23/276/92
f 23/277/93 49/278/93 50/279/93
f 23/280/94 50/281/94 24/282/94
f 24/283/95 50/284/95 51/285/95
f 24/286/96 51/287/96 25/288/96
f 25/289/97 51/290/97 29/291/97
f 25/292/98 29/293/98 1/294/98
f 1/295/99 29/296/99 27/297/99
f 1/298/100 27/299/100 3/300/100

# Thank you for using Spin 3D

